<svg xmlns="http://www.w3.org/2000/svg" version="1.1" xmlns:xlink="http://www.w3.org/1999/xlink" xmlns:svgjs="http://svgjs.dev/svgjs" width="1500" height="333" viewBox="0 0 1500 333"><g transform="matrix(1,0,0,1,-0.9090909090909918,0.8578343656227787)"><svg viewBox="0 0 396 88" data-background-color="#ffffff" preserveAspectRatio="xMidYMid meet" height="333" width="1500" xmlns="http://www.w3.org/2000/svg" xmlns:xlink="http://www.w3.org/1999/xlink"><g id="tight-bounds" transform="matrix(1,0,0,1,0.2400000000000091,-0.22669496749190898)"><svg viewBox="0 0 395.52 88.45338993498383" height="88.45338993498383" width="395.52"><g><svg viewBox="0 0 524.5736314225123 117.31471472953572" height="88.45338993498383" width="395.52"><g transform="matrix(1,0,0,1,0,16.213538721665216)"><svg viewBox="0 0 395.52 84.88763728620529" height="84.88763728620529" width="395.52"><g id="textblocktransform"><svg viewBox="0 0 395.52 84.88763728620529" height="84.88763728620529" width="395.52" id="textblock"><g><svg viewBox="0 0 395.52 49.72515924099306" height="49.72515924099306" width="395.52"><g transform="matrix(1,0,0,1,0,0)"><svg width="395.52" viewBox="2.22 -36.33 292.03999999999996 36.72" height="49.72515924099306" data-palette-color="#067627"><path d="M2.22 0L2.22-2.2 19.82-29.86 16.38-29.74 3.05-29.74 3.05-33.98 26.49-33.98 26.49-31.79 8.84-4.2 12.57-4.3 26.49-4.3 26.49 0 2.22 0ZM44.72 0.39L44.72 0.39Q30.91 0.39 30.91-13.11L30.91-13.11Q30.91-18.92 34.74-22.41L34.74-22.41Q38.18-25.59 42.6-25.59L42.6-25.59Q47.41-25.59 50.12-22.36L50.12-22.36Q52.63-19.36 52.63-14.33L52.63-14.33 52.63-12.43 35.98-12.43Q35.98-5.52 41.62-3.98L41.62-3.98Q42.97-3.61 45.76-3.61 48.56-3.61 51.24-4.37L51.24-4.37 51.24-0.24Q48.56 0.39 44.72 0.39ZM36.11-16.02L47.75-16.02Q47.75-18.36 46.46-19.97L46.46-19.97Q44.94-21.83 42.28-21.83L42.28-21.83Q39.48-21.83 37.72-20.04L37.72-20.04Q36.11-18.38 36.11-16.02L36.11-16.02ZM59.11-4.5Q58.3-5.88 57.82-7.76 57.34-9.64 57.34-12.67 57.34-15.7 58.65-18.25 59.96-20.8 62.06-22.44L62.06-22.44Q66.13-25.59 72.19-25.59L72.19-25.59Q75.34-25.59 76.95-25.44L76.95-25.44Q76.95-25.44 79.32-25.2L79.32-25.2 79.32 0 74.92 0 74.73-2.91Q73.26-0.95 70.26 0L70.26 0Q69.11 0.37 67.9 0.37 66.69 0.37 65.52 0.12 64.35-0.12 63.19-0.68 62.03-1.25 60.98-2.19 59.93-3.13 59.11-4.5ZM74.43-6.62L74.43-21.61Q72.87-21.8 71.32-21.8 69.77-21.8 68.01-21.25 66.25-20.7 65.01-19.53L65.01-19.53Q62.42-17.09 62.42-12.08L62.42-12.08Q62.42-7.35 64.64-5.08L64.64-5.08Q66.33-3.39 68.7-3.39L68.7-3.39Q71.75-3.39 73.73-5.62L73.73-5.62Q74.21-6.18 74.43-6.62L74.43-6.62ZM88.18-9.52L88.18-36.33 93.06-36.33 93.06-9.55Q93.06-4.71 95.26-3.86L95.26-3.86Q95.99-3.56 96.82-3.56 97.65-3.56 98.31-3.76L98.31-3.76 98.31 0 97.4 0.1Q96.97 0.15 96.55 0.15L96.55 0.15Q91.86 0.15 89.79-2.93L89.79-2.93Q88.18-5.35 88.18-9.52L88.18-9.52ZM120.42 0L120.42-33.98 143.54-33.98 143.54-29.74 125.3-29.74 125.3-19.73 139.39-19.73 139.39-15.63 125.3-15.63 125.3 0 120.42 0ZM155.31-32.53Q155.31-31.13 154.39-30.38 153.48-29.64 152.11-29.64 150.74-29.64 149.85-30.38 148.96-31.13 148.96-32.53 148.96-33.94 149.85-34.67 150.74-35.4 152.11-35.4 153.48-35.4 154.39-34.67 155.31-33.94 155.31-32.53ZM149.59 0L149.59-25.2 154.48-25.2 154.48 0 149.59 0ZM173.49-21.39L173.49-21.39Q169.86-21.39 167.02-18.92L167.02-18.92 167.02 0 162.14 0 162.14-25.2 166.66-25.2 167-22.46Q170.98-25.59 175.23-25.59L175.23-25.59Q179.72-25.59 181.82-22.9L181.82-22.9Q184.02-20.07 184.02-13.77L184.02-13.77 184.02 0 179.13 0 179.13-13.77Q179.13-19.82 175.86-21L175.86-21Q174.81-21.39 173.49-21.39ZM192.45-4.5Q191.63-5.88 191.15-7.76 190.68-9.64 190.68-12.67 190.68-15.7 191.98-18.25 193.29-20.8 195.39-22.44L195.39-22.44Q199.47-25.59 205.52-25.59L205.52-25.59Q208.67-25.59 210.28-25.44L210.28-25.44Q210.28-25.44 212.65-25.2L212.65-25.2 212.65 0 208.26 0 208.06-2.91Q206.6-0.95 203.59 0L203.59 0Q202.45 0.37 201.24 0.37 200.03 0.37 198.86 0.12 197.69-0.12 196.53-0.68 195.37-1.25 194.32-2.19 193.27-3.13 192.45-4.5ZM207.77-6.62L207.77-21.61Q206.21-21.8 204.66-21.8 203.11-21.8 201.35-21.25 199.59-20.7 198.34-19.53L198.34-19.53Q195.76-17.09 195.76-12.08L195.76-12.08Q195.76-7.35 197.98-5.08L197.98-5.08Q199.66-3.39 202.03-3.39L202.03-3.39Q205.08-3.39 207.06-5.62L207.06-5.62Q207.55-6.18 207.77-6.62L207.77-6.62ZM231.81-21.39L231.81-21.39Q228.18-21.39 225.34-18.92L225.34-18.92 225.34 0 220.46 0 220.46-25.2 224.98-25.2 225.32-22.46Q229.3-25.59 233.55-25.59L233.55-25.59Q238.04-25.59 240.14-22.9L240.14-22.9Q242.34-20.07 242.34-13.77L242.34-13.77 242.34 0 237.45 0 237.45-13.77Q237.45-19.82 234.18-21L234.18-21Q233.13-21.39 231.81-21.39ZM267.72-4.44L267.72-0.07Q266.26 0.39 262.65 0.39 259.03 0.39 256.51-0.49 253.98-1.37 252.2-3.08L252.2-3.08Q248.51-6.62 248.51-12.89L248.51-12.89Q248.51-18.97 252.93-22.46L252.93-22.46Q256.88-25.59 262.65-25.59L262.65-25.59Q266.21-25.59 267.53-25.34L267.53-25.34 267.53-21Q265.48-21.66 262.85-21.66 260.23-21.66 258.5-20.94 256.76-20.21 255.66-18.99L255.66-18.99Q253.59-16.67 253.59-12.89L253.59-12.89Q253.59-6.49 258.2-4.37L258.2-4.37Q259.84-3.61 261.4-3.61 262.96-3.61 263.81-3.69 264.65-3.76 265.4-3.88L265.4-3.88Q267.02-4.15 267.72-4.44L267.72-4.44ZM286.35 0.39L286.35 0.39Q272.53 0.39 272.53-13.11L272.53-13.11Q272.53-18.92 276.36-22.41L276.36-22.41Q279.81-25.59 284.23-25.59L284.23-25.59Q289.04-25.59 291.74-22.36L291.74-22.36Q294.26-19.36 294.26-14.33L294.26-14.33 294.26-12.43 277.61-12.43Q277.61-5.52 283.25-3.98L283.25-3.98Q284.59-3.61 287.39-3.61 290.18-3.61 292.87-4.37L292.87-4.37 292.87-0.24Q290.18 0.39 286.35 0.39ZM277.73-16.02L289.38-16.02Q289.38-18.36 288.08-19.97L288.08-19.97Q286.57-21.83 283.91-21.83L283.91-21.83Q281.1-21.83 279.34-20.04L279.34-20.04Q277.73-18.38 277.73-16.02L277.73-16.02Z" opacity="1" transform="matrix(1,0,0,1,0,0)" fill="#067627" class="wordmark-text-0" data-fill-palette-color="primary" id="text-0"></path></svg></g></svg></g><g transform="matrix(1,0,0,1,163.310208,61.46407593396974)"><svg viewBox="0 0 232.209792 23.423561352235545" height="23.423561352235545" width="232.209792"><g transform="matrix(1,0,0,1,0,0)"><svg width="232.209792" viewBox="4.3 -36.5 366.76 37" height="23.423561352235545" data-palette-color="#067627"><path d="M8.4 0L4.3 0 4.3-36 8.4-36 8.4 0ZM20.7 0L16.7 0 16.7-25.5 20.45-25.5 20.45-19.5 20.7-19.5 20.7 0ZM38.95 0L34.95 0 34.95-16.7Q34.95-19.6 33.5-21.05 32.05-22.5 29.2-22.5L29.2-22.5Q26.7-22.5 24.77-21.4 22.85-20.3 21.77-18.35 20.7-16.4 20.7-13.8L20.7-13.8 20.05-19.85Q21.35-22.7 24.02-24.35 26.7-26 30.1-26L30.1-26Q34.1-26 36.52-23.73 38.95-21.45 38.95-17.75L38.95-17.75 38.95 0ZM57.35 0L54.1 0 43.55-25.5 47.85-25.5 56.65-2.7 55.05-2.7 63.8-25.5 67.9-25.5 57.35 0ZM83.24 0.5L83.24 0.5Q79.59 0.5 76.79-1.23 73.99-2.95 72.39-5.95 70.79-8.95 70.79-12.85L70.79-12.85Q70.79-16.75 72.37-19.73 73.94-22.7 76.79-24.35 79.64-26 83.34-26L83.34-26Q86.89-26 89.52-24.45 92.14-22.9 93.57-20.1 94.99-17.3 94.99-13.5L94.99-13.5Q94.99-13 94.97-12.55 94.94-12.1 94.84-11.55L94.84-11.55 73.79-11.55 73.79-14.9 92.39-14.9 91.09-13.05Q91.09-17.65 89.07-20.13 87.04-22.6 83.34-22.6L83.34-22.6Q79.54-22.6 77.22-19.98 74.89-17.35 74.89-12.9L74.89-12.9Q74.89-8.35 77.22-5.63 79.54-2.9 83.44-2.9L83.44-2.9Q85.89-2.9 87.74-3.98 89.59-5.05 90.44-7.05L90.44-7.05 94.24-7.05Q92.99-3.55 90.07-1.53 87.14 0.5 83.24 0.5ZM109.64 0.5L109.64 0.5Q104.94 0.5 102.14-1.68 99.34-3.85 98.94-7.85L98.94-7.85 102.79-7.85Q103.14-5.4 104.94-4.1 106.74-2.8 109.74-2.8L109.74-2.8Q112.39-2.8 113.89-3.8 115.39-4.8 115.39-6.65L115.39-6.65Q115.39-7.95 114.54-8.93 113.69-9.9 111.14-10.55L111.14-10.55 107.04-11.6Q103.54-12.5 101.79-14.38 100.04-16.25 100.04-18.85L100.04-18.85Q100.04-22.15 102.49-24.08 104.94-26 109.14-26L109.14-26Q113.29-26 115.89-24 118.49-22 118.84-18.45L118.84-18.45 114.99-18.45Q114.64-20.5 113.09-21.6 111.54-22.7 108.99-22.7L108.99-22.7Q106.54-22.7 105.19-21.78 103.84-20.85 103.84-19.15L103.84-19.15Q103.84-17.85 104.82-16.9 105.79-15.95 108.09-15.3L108.09-15.3 112.09-14.2Q115.64-13.25 117.44-11.3 119.24-9.35 119.24-6.6L119.24-6.6Q119.24-3.25 116.69-1.38 114.14 0.5 109.64 0.5ZM134.84 0.45L134.84 0.45Q130.59 0.45 128.66-1.48 126.74-3.4 126.74-7.05L126.74-7.05 126.74-31.45 130.74-32.95 130.74-7.1Q130.74-4.95 131.84-3.95 132.94-2.95 135.44-2.95L135.44-2.95Q136.44-2.95 137.16-3.08 137.89-3.2 138.34-3.4L138.34-3.4 138.34 0Q137.84 0.2 136.91 0.33 135.99 0.45 134.84 0.45ZM138.34-22.1L121.49-22.1 121.49-25.5 138.34-25.5 138.34-22.1ZM157.48 0L153.48 0 153.48-25.5 157.48-25.5 157.48 0ZM157.78-31.3L153.18-31.3 153.18-36 157.78-36 157.78-31.3ZM169.48 0L165.48 0 165.48-25.5 169.23-25.5 169.23-19.5 169.48-19.5 169.48 0ZM187.73 0L183.73 0 183.73-16.7Q183.73-19.6 182.28-21.05 180.83-22.5 177.98-22.5L177.98-22.5Q175.48-22.5 173.56-21.4 171.63-20.3 170.56-18.35 169.48-16.4 169.48-13.8L169.48-13.8 168.83-19.85Q170.13-22.7 172.81-24.35 175.48-26 178.88-26L178.88-26Q182.88-26 185.31-23.73 187.73-21.45 187.73-17.75L187.73-17.75 187.73 0ZM221.93 0.5L221.93 0.5Q216.43 0.5 212.38-1.75 208.33-4 206.13-8.08 203.93-12.15 203.93-17.7L203.93-17.7Q203.93-23.25 206.1-27.48 208.28-31.7 212.15-34.1 216.03-36.5 221.08-36.5L221.08-36.5Q225.03-36.5 228.25-35 231.48-33.5 233.55-30.85 235.63-28.2 236.08-24.7L236.08-24.7 231.98-24.7Q231.48-28.4 228.55-30.6 225.63-32.8 221.23-32.8L221.23-32.8Q217.28-32.8 214.33-30.93 211.38-29.05 209.75-25.7 208.13-22.35 208.13-17.8L208.13-17.8Q208.13-13.25 209.8-9.98 211.48-6.7 214.65-4.95 217.83-3.2 222.28-3.2L222.28-3.2Q225.33-3.2 227.73-4.08 230.13-4.95 232.08-6.8L232.08-6.8 236.18-5.3Q233.43-2.4 229.85-0.95 226.28 0.5 221.93 0.5ZM236.18-5.3L232.08-5.3 232.08-16.95 233.63-15.4 222.23-15.4 222.23-19 236.18-19 236.18-5.3ZM247.67 0L243.67 0 243.67-25.5 247.42-25.5 247.42-19 247.67-19 247.67 0ZM247.67-13.3L247.67-13.3 247.02-19.35Q247.92-22.6 250.22-24.3 252.52-26 255.52-26L255.52-26Q256.77-26 257.22-25.8L257.22-25.8 257.22-21.95Q256.97-22.05 256.52-22.08 256.07-22.1 255.42-22.1L255.42-22.1Q251.62-22.1 249.65-19.83 247.67-17.55 247.67-13.3ZM273.02 0.5L273.02 0.5Q269.27 0.5 266.42-1.25 263.57-3 262-6.03 260.42-9.05 260.42-12.85L260.42-12.85Q260.42-16.7 262.02-19.65 263.62-22.6 266.45-24.3 269.27-26 273.02-26L273.02-26Q276.82-26 279.65-24.3 282.47-22.6 284.05-19.65 285.62-16.7 285.62-12.85L285.62-12.85Q285.62-9.05 284.05-6.03 282.47-3 279.65-1.25 276.82 0.5 273.02 0.5ZM273.02-2.9L273.02-2.9Q275.62-2.9 277.52-4.17 279.42-5.45 280.47-7.7 281.52-9.95 281.52-12.9L281.52-12.9Q281.52-17.3 279.2-19.95 276.87-22.6 273.02-22.6L273.02-22.6Q269.22-22.6 266.87-19.95 264.52-17.3 264.52-12.9L264.52-12.9Q264.52-9.95 265.57-7.7 266.62-5.45 268.55-4.17 270.47-2.9 273.02-2.9ZM300.07 0L296.82 0 289.02-25.5 293.07-25.5 299.07-3.65 298.07-3.65 305.27-25.5 308.52-25.5 315.77-3.65 314.77-3.65 320.72-25.5 324.57-25.5 316.77 0 313.52 0 306.32-21.35 307.37-21.35 300.07 0ZM340.17 0.45L340.17 0.45Q335.92 0.45 333.99-1.48 332.07-3.4 332.07-7.05L332.07-7.05 332.07-31.45 336.07-32.95 336.07-7.1Q336.07-4.95 337.17-3.95 338.27-2.95 340.77-2.95L340.77-2.95Q341.77-2.95 342.49-3.08 343.22-3.2 343.67-3.4L343.67-3.4 343.67 0Q343.17 0.2 342.24 0.33 341.32 0.45 340.17 0.45ZM343.67-22.1L326.82-22.1 326.82-25.5 343.67-25.5 343.67-22.1ZM352.81 0L348.81 0 348.81-36 352.81-36 352.81 0ZM371.06 0L367.06 0 367.06-16.7Q367.06-19.6 365.61-21.05 364.16-22.5 361.31-22.5L361.31-22.5Q358.81-22.5 356.89-21.4 354.96-20.3 353.89-18.35 352.81-16.4 352.81-13.8L352.81-13.8 352.16-19.85Q353.46-22.7 356.14-24.35 358.81-26 362.21-26L362.21-26Q366.21-26 368.64-23.73 371.06-21.45 371.06-17.75L371.06-17.75 371.06 0Z" opacity="1" transform="matrix(1,0,0,1,0,0)" fill="#067627" class="slogan-text-1" data-fill-palette-color="secondary" id="text-1"></path></svg></g></svg></g></svg></g></svg></g><g transform="matrix(1,0,0,1,407.25891669297664,0)"><svg viewBox="0 0 117.31471472953572 117.31471472953572" height="117.31471472953572" width="117.31471472953572"><g data-palette-color="#fe705a"><rect width="32.06602202607309" height="117.31471472953572" fill="#fe705a" stroke="transparent" data-fill-palette-color="accent" x="0" fill-opacity="1"></rect><rect width="32.06602202607309" height="117.31471472953572" fill="#fe705a" stroke="transparent" data-fill-palette-color="accent" x="39.10490490984524" fill-opacity="0.75"></rect><rect width="32.06602202607309" height="117.31471472953572" fill="#fe705a" stroke="transparent" data-fill-palette-color="accent" x="78.20980981969048" fill-opacity="0.5"></rect></g></svg></g></svg></g><defs></defs></svg><rect width="395.52" height="88.45338993498383" fill="none" stroke="none" visibility="hidden"></rect></g></svg></g></svg>